<?xml version="1.0" standalone="no"?>
<!DOCTYPE svg PUBLIC "-//W3C//DTD SVG 20010904//EN"
 "http://www.w3.org/TR/2001/REC-SVG-20010904/DTD/svg10.dtd">
<svg version="1.0" xmlns="http://www.w3.org/2000/svg"
 width="512.000000pt" height="512.000000pt" viewBox="0 0 512.000000 512.000000"
 preserveAspectRatio="xMidYMid meet">

<g transform="translate(0.000000,512.000000) scale(0.100000,-0.100000)"
fill="#000000" stroke="none">
<path d="M639 4525 c-42 -23 -59 -72 -59 -168 0 -96 -1 -97 -77 -97 -59 0
-154 -25 -217 -57 -74 -38 -176 -144 -214 -224 -72 -150 -67 -40 -67 -1579 l0
-1385 22 -71 c53 -169 170 -279 368 -345 l70 -24 2077 -3 c2288 -3 2151 -6
2284 59 126 62 215 176 266 339 l23 75 0 1385 c0 1316 -1 1388 -18 1445 -58
189 -188 309 -402 372 -56 16 -160 18 -1527 21 l-1468 3 0 93 c0 103 -12 131
-70 161 -42 22 -951 22 -991 0z m947 -564 c134 -61 161 -246 50 -349 -66 -61
-92 -64 -531 -60 l-380 3 -48 28 c-26 15 -60 47 -75 69 -23 36 -27 51 -27 118
0 93 24 136 100 181 l50 29 410 0 c377 0 413 -2 451 -19z m3156 -17 c114 -80
126 -227 28 -325 -81 -81 -183 -88 -277 -20 -59 43 -86 105 -81 185 5 79 34
126 103 167 44 27 57 30 117 27 55 -3 75 -9 110 -34z m-1465 -133 c438 -95
798 -378 993 -781 48 -99 92 -238 117 -365 23 -124 23 -377 -1 -500 -64 -327
-221 -603 -463 -817 -323 -285 -779 -409 -1208 -328 -247 47 -513 185 -701
363 -294 278 -445 632 -445 1040 1 392 144 733 421 1007 225 221 500 355 820
400 104 14 361 4 467 -19z"/>
<path d="M2755 3530 c-230 -50 -414 -151 -577 -317 -204 -209 -314 -461 -325
-748 -11 -274 65 -514 232 -736 289 -385 804 -543 1267 -388 299 99 564 349
684 642 68 168 78 221 78 432 1 178 -1 196 -27 289 -66 238 -205 452 -390 601
-105 85 -286 176 -422 211 -139 37 -385 43 -520 14z"/>
</g>
</svg>
